<svg xmlns="http://www.w3.org/2000/svg" width="3324" height="600" aria-labelledby="title desc" viewBox="0 0 3324 600"><title id="title">AcroFinder</title><desc id="desc">AcroFinder horizontal partner logo, with the compass and acrobat symbol beside a Fraunces wordmark.</desc><g fill-rule="evenodd" aria-hidden="true"><path fill="#1d6018" d="m247 32 10 45-20-1zm-22 47h4l-3 10-19 2-41 14-29 16a281 281 0 0 0-56 49q-11 15-19 31a197 197 0 0 0-21 144 188 188 0 0 0 30 70 191 191 0 0 0 48 51l27 18q20 11 40 17c13 4 40 8 40 8l2 11s-24-2-36-5a269 269 0 0 1-76-36 246 246 0 0 1-54-55 245 245 0 0 1-33-77q-4-15-5-32a233 233 0 0 1 28-123A231 231 0 0 1 182 87c14-4 42-8 43-8m41 0s29 3 42 7l33 12q20 9 38 22a217 217 0 0 1 56 60 217 217 0 0 1-19 265 234 234 0 0 1-109 69l-38 7-1-3 2-9 43-9 20-8a189 189 0 0 0 55-37q12-11 22-23a222 222 0 0 0 39-70 185 185 0 0 0 9-72 188 188 0 0 0-17-73q-6-15-16-29a299 299 0 0 0-48-55 250 250 0 0 0-45-27l-27-10-35-7zM44 296l46 6-45 6zm404 0 3 1-1 11-45-6zm-195 20 6 2q4 3 5 8t-1 9l-4 4-4 2-1 4 4 3-3 3 11-2q8 1 12 5l5 6-3-4c0-2-2-13-4-17l-8-8 1-3h1l3 5q3 2 5 0c1-2-1-10-1-10l5 5v10l9 13 4 11v4l-3 3h-14q-4 1-9-2l-4-8 2 12-5 10v8l6 17 1 13q0 9-3 16l-5 18v19l-6 22q-1 6 2 11l6 5-3 3q-4 2-10 0-4-5-3-10v-32c2-14 9-36 10-44v-17q0-5-4-8c-3-4-12-8-16-13q-5-8-7-18-1-7 1-13l3-6q4-2 7-6c2-3-1-7 1-9 1-2 6 1 6 1l-8-4q-3-2-3-5l4-8q5-4 12-5m-34 7 1 2-3 4q-1 3 1 4 3 1 6-1l1-4h3v3l-3 4-5 3-5 17q-1 4-3 5l7-7 9-4 5 1-5 6c-1 3 1 8-2 11q-5 3-12 2l-11-1-3-3q-1-5 1-10c3-4 11-13 13-18v-10zm17 68 13 10q5 4 6 10v13c-2 7-9 26-11 39l-1 35c0 4 4 9 4 12q-2 2-7 3-4 1-6-2c-1-3 3-10 2-16l-5-20v-9l4-10-4-37 5-18zm1 131h21l-10 46z"/><path fill="#209bda" d="M243 85h3l1 2c0 2-3 11-3 17l1 15-2 29q3 7 4 15l1 17q1 5-2 8l-9 9-3 12-5-15 1-17 5-16c0-7-4-14-3-21 0-8 5-15 6-23l-1-15 2-12q1-3 4-5m7 0q2-1 4 1l3 5c0 3-3 15-2 22 1 8 6 16 7 24 1 6-2 13-1 20q3 12 8 23v17l-5 17v11l-7-5h-8l-4 1-5 6-3-21 3-8q5-3 9-8 3-5 2-11v-16l-4-16c-1-8 2-30 1-33l-2-6zm2 138 9 2 3 4q3 4 6 13l2 50 3 15v15l4 7-1 3h-5l-3-6v-4l-5-15v-13l-4-20-4-7-7-7-6-4h-9l-5 2 8-17 3-11 5-6q3-2 6-1m-17 36h8c3 2 9 5 10 8 1 2-4 3-5 5l2 7q-1 6-5 9-6 2-9 0l-1-3-7-4-2-6v-10l-4 5v12l-5 7q-3 3-7 3l-11-2s7-2 9-5l3-17 5-7 5-2h5l4 2zm-10 22 8 6v2l-7 38-4 5h-4v-3l3-8v-16z"/></g><path fill="#1d6018" d="M648 341h149l2 24H646Zm27 131q0 4-3 7t-11 3h-78q-7 0-11-3-3-2-3-7 0-4 2-6 2-3 8-5l8-3q8-4 12-9l8-20 84-253q3-10 1-15-1-4-10-7-7-2-10-5-3-2-3-7 0-4 4-7t11-3h113q8 0 11 3t3 7-2 7-10 5q-7 2-8 5-1 4 1 12l89 264q4 11 8 17 5 5 13 7 8 3 10 6 3 2 3 7 0 4-4 7t-11 3H795q-7 0-10-3-4-3-4-7t3-7l7-4 16-3q7-2 7-6l-3-14-92-279 8-4-90 270q-3 10-3 16t4 10 12 7l15 3 8 4q2 3 2 7m489-164q0 13-9 22-9 8-24 8-14 0-22-8-7-8-7-21v-7q0-18-12-28-11-11-31-11-17 0-31 10t-22 29-8 45q0 32 11 54t30 33 44 11q22 0 39-9 17-10 25-27l6-6 6-2q4 0 5 3l2 8q-2 21-15 38-13 18-36 28-22 10-51 10-36 0-64-15-27-14-43-41-15-27-15-63t15-66 44-46q29-17 67-17 29 0 51 10 22 9 33 24 12 16 12 34m121 43q0-36 10-61 11-25 28-37 17-13 36-13 23 0 36 13 13 14 13 37 0 20-9 30-8 10-21 10-14 0-21-7t-7-20v-9q0-8-4-12t-12-4q-10 0-19 7-9 8-15 24t-6 41Zm6-94 3 57v130q0 7 3 10 3 4 10 5l22 3q6 1 8 4 3 2 3 7 0 4-3 7-3 2-10 2h-111q-7 0-10-2-3-3-3-7t2-6q2-3 7-4l11-3q5-1 7-5 2-3 2-11V296q0-6-2-8-2-3-6-4l-15-1q-4 0-6-3-2-2-2-5 0-4 2-6l9-5 42-15 17-6 8-1q5 0 8 3 3 4 4 12m273-16q38 0 67 15 29 16 45 44t16 65q0 35-17 63-16 28-45 44t-68 16-66-16-45-44-16-64 16-64 46-43 67-16m18 223q19-3 31-17 12-13 15-36 4-24-2-56t-17-53-29-31q-16-9-35-6t-31 16q-12 14-15 37-4 23 2 56 5 32 17 53t28 31q17 9 36 6m348-332q9 0 15-2l10-5q5-3 10-3 7 0 11 4l6 12 20 72q1 6-2 9-2 4-8 5-5 1-9-1t-7-8q-11-25-21-38t-21-17q-12-5-27-5h-62v288q0 5 3 9t9 5l24 3q6 1 8 4 3 3 3 8 0 4-3 7-4 3-11 3h-125q-7 0-11-3-3-3-3-7 0-9 10-12l15-3q6-2 9-5 4-4 4-9V171q0-5-4-9-3-3-9-5l-15-3q-10-3-10-11 0-5 3-8 4-3 11-3Zm-114 172h84q16 0 22-6t10-24q1-5 4-7 2-3 7-3 9-1 12 9l18 74q2 5 0 9-2 3-6 5-5 1-9-1-4-1-7-6l-12-17q-5-6-12-8t-18-2h-93Zm306-47v187q0 8 2 11 3 4 8 5l10 3q5 1 7 4 2 2 2 6t-3 7-10 2h-94q-7 0-10-2-3-3-3-7t2-6q2-3 7-4l11-3q5-1 7-5 2-3 2-11V296q0-6-2-9t-6-3l-15-1-6-3q-2-2-2-5 0-4 2-6 2-3 9-5l43-16 15-5 9-1q8 0 11 4 4 4 4 11m-36-57q-19 0-30-10t-11-25 11-25 30-10 29 10q11 9 11 25 0 15-11 25t-29 10m192 57v187q0 8 2 11 2 4 7 5l10 3q8 3 8 9 0 10-13 10h-93q-6 0-9-2-3-3-3-7t2-6q2-3 7-4l10-3q5-1 7-5 3-3 3-11V296q0-6-2-9t-6-3l-15-1q-5-1-7-3t-2-5 2-6 9-5l44-16 14-5 10-1q7 0 11 4t4 11m-8 54-11-11 11-9q31-28 54-39 23-12 44-12 32 0 51 21 20 20 20 54v129q0 7 2 11 3 4 8 5l10 3q4 1 6 4 3 2 3 6t-3 7q-3 2-10 2h-93q-13 0-13-10 0-6 8-9l10-3q5-1 8-5 2-4 2-11V325q0-24-12-36-11-11-30-11-12 0-26 6t-28 18Zm415 130-1-2V166q0-6-2-9t-7-3l-15-1-6-3q-2-2-2-5 0-4 2-7l9-4 43-16 15-5 10-1q7 0 11 4 3 4 3 11v317q0 8 3 11 2 4 7 5l10 3q5 1 7 4 2 2 2 6t-3 7-10 2h-47q-13 0-21-7-8-8-8-21Zm-183-71q0-40 16-69t42-45 60-16q30 0 54 15 23 14 38 41l-15 14q-13-22-30-33t-36-11q-18 0-33 11-15 10-23 32-8 21-8 54 0 31 8 52t22 31 33 10 36-11q17-12 31-35l10 14q-20 30-45 47-26 17-57 17-30 0-53-15t-37-42-13-61m535-35q0 12-8 19-7 7-21 7h-158v-18h111q13 0 13-11 0-33-13-51t-36-18q-17 0-30 10t-21 29-7 45q0 49 23 73 23 25 61 25 24 0 41-9 18-10 26-27l6-7 6-1q3 0 5 3t2 8q-2 21-15 38-14 17-37 28-23 10-53 10-36 0-63-15-28-14-43-41-16-27-16-63 0-37 15-66t43-46 66-17q32 0 55 12 23 13 35 34 13 21 13 49m122 16q0-36 10-61 11-25 28-37 17-13 36-13 23 0 36 13 13 14 13 37 0 20-9 30-8 10-21 10-14 0-21-7t-7-20v-9q0-8-4-12t-12-4q-10 0-19 7-9 8-15 24t-6 41Zm6-94 3 57v130q0 7 3 10 3 4 10 5l22 3q6 1 8 4 3 2 3 7 0 4-3 7-3 2-10 2h-111q-7 0-10-2-3-3-3-7t2-6q2-3 7-4l11-3q5-1 7-5 2-3 2-11V296q0-6-2-8-2-3-6-4l-15-1q-4 0-6-3-2-2-2-5 0-4 2-6l9-5 42-15 17-6 8-1q5 0 8 3 3 4 4 12" aria-hidden="true"/></svg>